/* XPM */
static char *out[] = {
/* columns rows colors chars-per-pixel */
"24 24 58 1 ",
"  c None",
". c #E51D23",
"X c #E61D22",
"o c #E71D22",
"O c #E71C23",
"+ c #E61D23",
"@ c #E31F24",
"# c #E31E26",
"$ c #E71D24",
"% c #E71D25",
"& c #E41E24",
"* c #E51E24",
"= c #E41F24",
"- c #E51F25",
"; c #E61E24",
": c #E71E25",
"> c #E91B21",
", c #EA1B21",
"< c #EB1B21",
"1 c #EA1B22",
"2 c #EB1B22",
"3 c #E91C21",
"4 c #E81D21",
"5 c #EA1C21",
"6 c #EB1C21",
"7 c #E91C22",
"8 c #E81D22",
"9 c #E91D22",
"0 c #E91C23",
"q c #EA1C22",
"w c #EB1C22",
"e c #EA1C23",
"r c #EA1D23",
"t c #E81E22",
"y c #EA1D24",
"u c #E91F26",
"i c #E12025",
"p c #E12127",
"a c #E32026",
"s c #E22027",
"d c #E42026",
"f c #E22427",
"g c #EA2026",
"h c #E02128",
"j c #EA2930",
"k c #E1373D",
"l c #E8353A",
"z c #E64247",
"x c #EB4449",
"c c #EC555A",
"v c #EF6266",
"b c #EE6568",
"n c #ED666A",
"m c #EE686C",
"M c #F08183",
"N c #F0979A",
"B c #F09C9F",
"V c #F4D1D3",
/* pixels */
"                        ",
"                        ",
"                        ",
"                        ",
"           #=           ",
"           ;$           ",
"           21           ",
"          *q2o          ",
"         i56w6h         ",
"         4qwwq0         ",
"        X>wwww5+        ",
"       :7wwwwww9-       ",
"       tqwwwwwww8       ",
"      klewwwwwwwq@      ",
"      cnywwwwwwwq3      ",
"      bMgwwwwwwwq5      ",
"      mBjwwwwwwwwq      ",
"      vVxwwwwwwwq7      ",
"      zNxwwwwwww1.      ",
"       urwwwwww,7a      ",
"       %7<www2qq&       ",
"        p3,wwqOd        ",
"           sf           ",
"                        "
};
