/* XPM */
static char *out[] = {
/* columns rows colors chars-per-pixel */
"36 36 185 2 ",
"   c None",
".  c #0B0C0E",
"X  c #070B0F",
"o  c #0C0E14",
"O  c #0C0F19",
"+  c #0C1113",
"@  c #0E111B",
"#  c #11121A",
"$  c #14191C",
"%  c #1A1B1F",
"&  c #141720",
"*  c #141C24",
"=  c #1A1B22",
"-  c #172025",
";  c #192027",
":  c #1A202A",
">  c #3D4854",
",  c #3A515E",
"<  c #48494A",
"1  c #444654",
"2  c #434A53",
"3  c #4F4957",
"4  c #414C5A",
"5  c #564C56",
"6  c #59535E",
"7  c #644C4E",
"8  c #6B4E52",
"9  c #624B53",
"0  c #6B5352",
"q  c #6F535D",
"w  c #67565E",
"e  c #715B5D",
"r  c #795F5D",
"t  c #705452",
"y  c #485668",
"u  c #535666",
"i  c #5C5362",
"p  c #535A6D",
"a  c #5C5969",
"s  c #4F5F78",
"d  c #505B7A",
"f  c #615564",
"g  c #625C6C",
"h  c #695F6F",
"j  c #695864",
"k  c #715561",
"l  c #745D64",
"z  c #785C68",
"x  c #785A68",
"c  c #645F70",
"v  c #5A6476",
"b  c #5B6D77",
"n  c #5C6D7B",
"m  c #56647A",
"M  c #5E737E",
"N  c #6B616F",
"B  c #726063",
"V  c #76626C",
"C  c #7D626D",
"Z  c #646274",
"A  c #6D697B",
"S  c #62707C",
"D  c #60787E",
"F  c #973A37",
"G  c #9D3837",
"H  c #AD3125",
"J  c #B73421",
"K  c #CF3F1D",
"L  c #CF3F23",
"P  c #9F482A",
"I  c #95463F",
"U  c #AC4229",
"Y  c #AE4F2C",
"T  c #B44C2D",
"R  c #BF4E2F",
"E  c #B34323",
"W  c #B0542F",
"Q  c #B8572A",
"!  c #AC4D3A",
"~  c #A94637",
"^  c #B44E33",
"/  c #B64C3C",
"(  c #B44637",
")  c #AE523B",
"_  c #B6533A",
"`  c #BB5C3C",
"'  c #BA5B35",
"]  c #CF4B18",
"[  c #D1441C",
"{  c #D54B1C",
"}  c #D84C1F",
"|  c #CE4F2F",
" . c #CE4627",
".. c #D44324",
"X. c #DA4F24",
"o. c #D14B29",
"O. c #D54825",
"+. c #CA522C",
"@. c #C5562F",
"#. c #D65021",
"$. c #DC5126",
"%. c #DC5228",
"&. c #D85E2F",
"*. c #C44E33",
"=. c #C55E3D",
"-. c #C35031",
";. c #DA5C32",
":. c #E25325",
">. c #E0572A",
",. c #CC643E",
"<. c #C2603A",
"1. c #DC6335",
"2. c #D0683F",
"3. c #DD6838",
"4. c #D96538",
"5. c #ED6A2E",
"6. c #E5662E",
"7. c #EC712E",
"8. c #E76B30",
"9. c #E96B31",
"0. c #EC7333",
"q. c #8C4144",
"w. c #9C4A44",
"e. c #914749",
"r. c #A94B41",
"t. c #B44C41",
"y. c #AE5343",
"u. c #BA5340",
"i. c #B75744",
"p. c #B76346",
"a. c #B56840",
"s. c #BC6F4B",
"d. c #BA6450",
"f. c #846C7B",
"g. c #86727F",
"h. c #C26444",
"j. c #C76949",
"k. c #DB6A43",
"l. c #DE7048",
"z. c #D16C52",
"x. c #CF7358",
"c. c #5F678A",
"v. c #576D88",
"b. c #5D7383",
"n. c #646D83",
"m. c #686B82",
"M. c #637582",
"N. c #6B7283",
"B. c #667A83",
"V. c #6A7C85",
"C. c #6B738C",
"Z. c #6C7E8A",
"A. c #60738B",
"S. c #777188",
"D. c #737B8B",
"F. c #6D7C96",
"G. c #667891",
"H. c #747D94",
"J. c #807480",
"K. c #6F818C",
"L. c #73838D",
"P. c #748593",
"I. c #768894",
"U. c #7A8A94",
"Y. c #7C8E9B",
"T. c #77869A",
"R. c #7F909A",
"E. c #808F98",
"W. c #808D95",
"Q. c #93849C",
"!. c #82929E",
"~. c #89989D",
"^. c #8395A3",
"/. c #8C9CA5",
"(. c #899CAA",
"). c #8CA0AB",
"_. c #92A2AB",
"`. c #8EA2B1",
"'. c #9CAEBA",
"]. c #98ACB4",
"[. c #9DB1BC",
"{. c #A5B6BD",
"}. c #AAB7BD",
"|. c #A5B6C3",
" X c #ABBBC4",
/* pixels */
"                                                                        ",
"                                                                        ",
"                                                                        ",
"                                                                        ",
"                                                                        ",
"                                                                        ",
"                              {.|. X|. X}.                              ",
"                          _.`.^.'.|.|.'.'._._.                          ",
"                        (./.D.c.v.~._.F.c.F././.                        ",
"                      [.`.C.q.H q o X x J q.m.!.[.                      ",
"                    '.'.H.F ~ w.C o X z w.~ G C.].'.                    ",
"                    `.^.x ( o.r.x . o V t.L ~ x T.^.                    ",
"                    /.P.e. .X.r.k + o V / .. .I b.R.E.                  ",
"                  !.T.n.r.%.$.y.q + o V / ..L / A.T.U.                  ",
"                  Y.P.Z u.%.$.y.k + @ V u.O.K u.Z P.I.                  ",
"                  R.P.c / :.:.! C + @ V h.X.[ i.h T./.                  ",
"                  !.T.g ^ #.#.! z # # V ` #.[ ^ N Y.~.                  ",
"                  I.Y.g H { ] ~ q + o e W ] { U a Z.W.                  ",
"                  L.L.Z T >.} P 8 + o e Q #.:.T i n Y.                  ",
"                  P.K.A ^ T ^ Y 8 + # j ' ^ T Y a S B.                  ",
"                  K.M.G.Q.W.S.N.s & $ m y u i w m N.K.                  ",
"                  V.b.C.g.f.g.S.p & & m A g 5 7 p M.D                   ",
"                  B.b.Z +.&.z.d.0 $ $ l x.j.3.1.6 b V.                  ",
"                  D n a _ ;.1.p.0 * * l j.4.1.` f Z.L.                  ",
"                  L.M.i ` 6.7.s.0 * * B h.5.5.=.f V.K.                  ",
"                  P.K.i =.8.0.s.t * * B j.9.5.,.f D L.                  ",
"                  L.Z.i ' 5.7.a.r - - e 2.8.5.=.6 b N.                  ",
"                  L.n 5 ` j.l.p.r - - e ` k.4.' 5 v S                   ",
"                  S n 3 _ Q -.-.7 ; ; q +.+.@._ 3 v b                   ",
"                    b , > 2 2 < 4 % = y 3 1 4 2                         ",
"                                                                        ",
"                                                                        ",
"                                                                        ",
"                                                                        ",
"                                                                        ",
"                                                                        "
};
