/* XPM */
static char *out[] = {
/* columns rows colors chars-per-pixel */
"32 32 194 2 ",
"   c None",
".  c #0A040D",
"X  c #10090C",
"o  c #090A14",
"O  c #050D10",
"+  c #190415",
"@  c #0C191D",
"#  c #171017",
"$  c #15151A",
"%  c #1B161B",
"&  c #161C1D",
"*  c #1C191E",
"=  c #3A080D",
"-  c #240A13",
";  c #250D1C",
":  c #2B0D1A",
">  c #390A10",
",  c #340C1C",
"<  c #3D0A1B",
"1  c #380713",
"2  c #23131C",
"3  c #2C141E",
"4  c #27181E",
"5  c #241516",
"6  c #30141C",
"7  c #3D141C",
"8  c #331014",
"9  c #1C1623",
"0  c #171924",
"q  c #1A1A22",
"w  c #1B1C2B",
"e  c #2F0F21",
"r  c #370F21",
"t  c #3A0E22",
"y  c #221522",
"u  c #2C1424",
"i  c #231C25",
"p  c #2C1A24",
"a  c #241D2A",
"s  c #2C1A2C",
"d  c #331426",
"f  c #3C1222",
"g  c #3C1D2B",
"h  c #371929",
"j  c #1E2735",
"k  c #27222A",
"l  c #2C2328",
"z  c #242531",
"x  c #2B2431",
"c  c #232B35",
"v  c #2D2B34",
"b  c #312432",
"n  c #3C2734",
"m  c #322B34",
"M  c #3B2D35",
"N  c #3A2638",
"B  c #352D39",
"V  c #3C2C3A",
"C  c #3B323C",
"Z  c #35333E",
"A  c #4B0415",
"S  c #430817",
"D  c #4A0D17",
"F  c #42051B",
"G  c #430A19",
"H  c #530E1A",
"J  c #40101D",
"K  c #63010D",
"L  c #441727",
"P  c #5B1B2E",
"I  c #621B29",
"U  c #7C1C33",
"Y  c #46242B",
"T  c #442432",
"R  c #452A36",
"E  c #442D3A",
"W  c #4D2C3B",
"Q  c #4B2433",
"!  c #512D35",
"~  c #542C3D",
"^  c #572435",
"/  c #43353E",
"(  c #4B353F",
")  c #4A393D",
"_  c #53333C",
"`  c #6F2D3B",
"'  c #642839",
"]  c #722D3E",
"[  c #7A2B3E",
"{  c #7D273E",
"}  c #66323D",
"|  c #6A343F",
" . c #462F42",
".. c #592E40",
"X. c #433840",
"o. c #453641",
"O. c #523641",
"+. c #5D3545",
"@. c #682D44",
"#. c #7E2740",
"$. c #742B43",
"%. c #7C2B40",
"&. c #752E4B",
"*. c #663643",
"=. c #6B3643",
"-. c #613943",
";. c #64374B",
":. c #743142",
">. c #7B3A46",
",. c #47575E",
"<. c #4D535A",
"1. c #52525C",
"2. c #5A5059",
"3. c #8A0C29",
"4. c #841528",
"5. c #811A34",
"6. c #951E3C",
"7. c #9E1F3F",
"8. c #A30D21",
"9. c #A01C34",
"0. c #852438",
"q. c #8C233B",
"w. c #832C3D",
"e. c #942339",
"r. c #9C2033",
"t. c #B8253C",
"y. c #CD1A39",
"u. c #D51A3B",
"i. c #C4223C",
"p. c #CB213D",
"a. c #951F40",
"s. c #9C1F43",
"d. c #812944",
"f. c #8A2948",
"g. c #9A2E4C",
"h. c #803A4F",
"j. c #883C4E",
"k. c #9F3040",
"l. c #9B354D",
"z. c #933A4B",
"x. c #9F2F52",
"c. c #8C3A55",
"v. c #893755",
"b. c #943454",
"n. c #9A3654",
"m. c #943855",
"M. c #AC2545",
"N. c #A52C44",
"B. c #A52E4C",
"V. c #AE2949",
"C. c #A42648",
"Z. c #B92747",
"A. c #B32943",
"S. c #B22C4A",
"D. c #B32349",
"F. c #A6304D",
"G. c #AA3041",
"H. c #A02B51",
"J. c #A23151",
"K. c #CE1D41",
"L. c #C71B46",
"P. c #D61941",
"I. c #C42144",
"U. c #D12142",
"Y. c #F33D59",
"T. c #EC3B62",
"R. c #B25D6C",
"E. c #B85776",
"W. c #9B7779",
"Q. c #F2405C",
"!. c #CA4D67",
"~. c #DA4A64",
"^. c #D94B66",
"/. c #CA516D",
"(. c #CA4D73",
"). c #CA5175",
"_. c #EB4364",
"`. c #E64960",
"'. c #897E84",
"]. c #987B81",
"[. c #B96582",
"{. c #868383",
"}. c #9CA8AD",
"|. c #A1A3AB",
" X c #D8CECE",
".X c #CDCCD6",
"XX c #DDCAD1",
"oX c #D4CCDB",
"OX c #DACCDA",
"+X c #DAC9D6",
"@X c #CAD4D9",
"#X c #D0D3DD",
"$X c #D4D1D7",
"%X c #EBC1C6",
/* pixels */
"                                                                ",
"                                                                ",
"                                                                ",
"                                                                ",
"                                                                ",
"                        *.  >.`   -.                            ",
"                      %.B.e.A.^.q.J.d.  =.                      ",
"                    %.6.I._.y.u.I.L.C.%.c.+.                    ",
"                  =.S.K.y.y.K.L.y.D.H.b.v.: O o o .             ",
"                    q.T.p.t.Z.M._.D.F y e y 0 y 9 i X {.        ",
"                    f.A.K M.g.A ^.B., 9 1.oX#X1.oX#X XXX{.      ",
"                  $.n.S j.D > , l.A y |..X1.oX#X,.@X XW.        ",
"                :.J.F 3 % : - - = h.y }.|.2..X#XOX].W.z.=.      ",
"              -.!.B.< 2 & ; [.O.%Xn.r % $ < , + [.S.9.~.0.      ",
"              *.~.M.< y 9 ; [._ > (.t ; 3 f.m.&.F.T.u.U.S.}     ",
"        &       G.4.1 # @ 2 : 5 8 ).P , b.n.$.  [ ~.Y.8.A.:.    ",
"      q   q q   ] U g., 9 0 9 0 d /.7.H b.&.      %.r.3.0.+.    ",
"    *   0 x i 2   $.c.T a   s z u z.K z.d.  $.  w.6.M.U 7 3     ",
"      q b x x b     ;.E M   V V a < n.=.  [ N.r.`.i.N.7 %       ",
"    0   b m m x m   s V C C E V a L Q s   w.i.Q.Y.~.D l *       ",
"      p g x v v B s V V V V V E V v c j d e.i.p.A.I 5 *         ",
"      +.^ h M m N N V p V E V V a c j c J S.A.q.G 3 %           ",
"      ] [   f n V V a   V W E V Z c k k L !.0.t / 2             ",
"      [ b.I :.f i k     V ~ E V a z w a t R.' e s $             ",
"        %.g.6.*.      M E W R R V x w w a p p  .*               ",
"        d.D.6.=.    / p W ( ~ ! y c w y r t t y %               ",
"        $.(.6.      M O.Y W W Q O.OX9 N t b...d %               ",
"          #.b.*.  p p T W ..~ ~ ! XXx e < E.f O.%               ",
"            *.    X.o.p T T ~ W Y )   r v.7 6 %                 ",
"                  C M ) ( E E E ! M +X+X6 ) 4 &                 ",
"                    2 m m   # / ! C a 0 * ) *                   ",
"                q   k %       & 2   0   i                       "
};
