/* XPM */
static char *out[] = {
/* columns rows colors chars-per-pixel */
"32 32 201 2 ",
"   c None",
".  c #090B0E",
"X  c #17130E",
"o  c #160A15",
"O  c #15151D",
"+  c #1D151E",
"@  c #161B1D",
"#  c #1B191D",
"$  c #131116",
"%  c #190409",
"&  c #2D0D15",
"*  c #220F1A",
"=  c #2C0C1B",
"-  c #3C0A14",
";  c #340B1D",
":  c #3B0C1B",
">  c #330914",
",  c #23131A",
"<  c #2C121B",
"1  c #35101E",
"2  c #3B131E",
"3  c #36080A",
"4  c #161724",
"5  c #1D1524",
"6  c #151C23",
"7  c #1B1B23",
"8  c #161A2D",
"9  c #1F1A2B",
"0  c #1D1528",
"q  c #2C0F21",
"w  c #330D24",
"e  c #221422",
"r  c #2B1523",
"t  c #241C25",
"y  c #2A1B25",
"u  c #2A162B",
"i  c #231B2A",
"p  c #2B1C2D",
"a  c #20152D",
"s  c #331323",
"d  c #3C1221",
"f  c #391E2B",
"g  c #391B29",
"h  c #261C34",
"j  c #1D232E",
"k  c #23222C",
"l  c #2D242E",
"z  c #35242D",
"x  c #252234",
"c  c #2D2532",
"v  c #232A31",
"b  c #2C2D34",
"n  c #342333",
"m  c #3E2635",
"M  c #342B35",
"N  c #392A36",
"B  c #3C2D3A",
"V  c #332F3B",
"C  c #33323A",
"Z  c #3B313B",
"A  c #4B0415",
"S  c #4B061A",
"D  c #420C1E",
"F  c #490C1B",
"G  c #490718",
"H  c #52101F",
"J  c #600211",
"K  c #560520",
"L  c #441526",
"P  c #441B2B",
"I  c #63162B",
"U  c #771932",
"Y  c #7B1427",
"T  c #41242C",
"R  c #4A222D",
"E  c #40292F",
"W  c #5D262B",
"Q  c #422636",
"!  c #4B2C35",
"~  c #432D3A",
"^  c #4B2B3B",
"/  c #442837",
"(  c #5B2B36",
")  c #562A39",
"_  c #463339",
"`  c #57353A",
"'  c #58333A",
"]  c #60262D",
"[  c #632C3B",
"{  c #6F2E3C",
"}  c #7D253D",
"|  c #7B2B3E",
" . c #792839",
".. c #63343F",
"X. c #6C333F",
"o. c #78323E",
"O. c #3C3541",
"+. c #532F41",
"@. c #433343",
"#. c #4E3444",
"$. c #433A43",
"%. c #4F3549",
"&. c #533345",
"*. c #5E364A",
"=. c #5B3444",
"-. c #6C2F42",
";. c #742B43",
":. c #7A2E41",
">. c #722E49",
",. c #653545",
"<. c #6B3142",
"1. c #6C3449",
"2. c #67364C",
"3. c #723143",
"4. c #7E3E4B",
"5. c #4E5559",
"6. c #56505B",
"7. c #76465A",
"8. c #555560",
"9. c #83102A",
"0. c #8E1E3A",
"q. c #931D32",
"w. c #981E38",
"e. c #A8132A",
"r. c #A71B32",
"t. c #BC1E3E",
"y. c #842539",
"u. c #8C233B",
"i. c #81293E",
"p. c #8D2134",
"a. c #942139",
"s. c #A12039",
"d. c #B5293E",
"f. c #CB1934",
"g. c #CC1C3D",
"h. c #CE163B",
"j. c #D21C34",
"k. c #D41C3A",
"l. c #DB1A36",
"z. c #C6203F",
"x. c #CF203C",
"c. c #9B1E41",
"v. c #842544",
"b. c #862944",
"n. c #952442",
"m. c #932D4B",
"M. c #9B2A49",
"N. c #84364A",
"B. c #9B364C",
"V. c #98364E",
"C. c #882E54",
"Z. c #9D2C51",
"A. c #933153",
"S. c #9C3652",
"D. c #953A54",
"F. c #963757",
"G. c #843857",
"H. c #AB2644",
"J. c #A42B4C",
"K. c #AC2A4B",
"L. c #AA2E47",
"P. c #BB2B45",
"I. c #B22B4D",
"U. c #B9294C",
"Y. c #BB2547",
"T. c #AB3149",
"R. c #A53147",
"E. c #A22E51",
"W. c #A83255",
"Q. c #CD1C41",
"!. c #D71B42",
"~. c #C42445",
"^. c #C42647",
"/. c #D52142",
"(. c #F8385C",
"). c #BC5673",
"_. c #B95D7B",
"`. c #B06077",
"'. c #CC4F69",
"]. c #D94A68",
"[. c #CF5267",
"{. c #C4536C",
"}. c #CC4D73",
"|. c #C65375",
" X c #E2456B",
".X c #E34767",
"XX c #77868B",
"oX c #828284",
"OX c #888183",
"+X c #A49DAB",
"@X c #A8A0AC",
"#X c #D4CFD7",
"$X c #D2CDD9",
"%X c #DACEDC",
"&X c #CFD2D9",
"*X c #C9D2D7",
"=X c #D3D0D5",
"-X c #D3D5DC",
";X c #EBC1C4",
":X c #E4C6D8",
">X c #FDF7FD",
/* pixels */
"                                                                ",
"                                                                ",
"                                                                ",
"                          ..  3.{   ..                          ",
"                    <.   .L.p.L.[.u.M.:.;.                      ",
"                  ' B.p.P.(.Q.Q.k.d.Y.c.Z.<.% . . .             ",
"                    u.^.k.!.!.g./.~.J.A.G.; r O 7 O . oX        ",
"                    :. XQ.t.Y.H. XH.G q 0 9 $X8.$X-X=X  oX      ",
"                    i.T.J I.M.K  XA.= u 6.=X#X$X6.*X-XoX        ",
"                  i.W.A V.S ; & B.- r +X*X5.*X$X#XoXXX          ",
"                :.K.A < < , , X 3 N., +X+X:Xw o OX      ;.| i.u.",
"              1.].J.& # 6 = `.` ;XS.: * r C.F.2.  ,.  y.P.^.^.U.",
"              1.|.m.r O 0 w _.=.> |.- < 1 A.:.  y.K.a.P.j.j./.r.",
"          +   *.  } : o $ 5 w * : }.m.G A.E.b.0.z.~.9.Y e.x.l.j.",
"        @   e r   U Z.D , @ e 5 ; J.U J.J.n.u..X^.K.F H q.e.f.l.",
"      #   7 c e 7 ;.W.N.y k j x # 1 D.i.:.i.P..XA L 1 { Y.g.r..X",
"        5 c n l c   *.^ p %Xi p l 9 h u   i.U.I < #     u.!.f.w.",
"      7   c n b l N   ~ B %XB Z M p h 9 g q.J.D #       :.h.(.z.",
"        e z g b M M k N @.@.Z B C p h x g D.} < j       3.].x.l.",
"        2.) z M M N M B B B B M Z 9 c b k d { _ O         i.w.x.",
"        >.b.  2 Q M C t Z ~ ~ B 6 O.M v v y -.: r +         o.d.",
"        >.A.I :.L t t   B ~ ~ B O.>X>Xl k u L ).F ~ t         o.",
"          :.n.0.,.      B ^ ^ B j _ ! f a u s S.{.d e #         ",
"          3.U.w.<.    b ~ ^ ! / N s [ f 9 i u F T.- 7 ,         ",
"          b.|.:.    %.t _ ( ( ^ < ..D.P 0 a y A d.] O.e         ",
"        ,.D.:.      M %.E ! ) / &.m :   6 V & [.P.- + e         ",
"          ,.      y u N ! ' ) &.@.u +.  l + - [.'.2 i e         ",
"                  @.%.r R R ! _ m #./ Q   ,   B. ., 9 5         ",
"                  V V ^ _ ! _ Z ' T ! m 7.    ;.d $.O           ",
"                    5 m m   , ~ W ( r O.s =.e u e 7             ",
"                    e g 7.    , N.d 0 8 e t i 6 7               ",
"                7   4 r             8   7   @                   "
};
