/* XPM */
static char *out[] = {
/* columns rows colors chars-per-pixel */
"32 32 197 2 ",
"   c None",
".  c #09070E",
"X  c #0B0B11",
"o  c #180710",
"O  c #0E1B1C",
"+  c #1D151D",
"@  c #141A1E",
"#  c #1B191D",
"$  c #16131C",
"%  c #39050D",
"&  c #220C15",
"*  c #240F1E",
"=  c #2D0D1C",
"-  c #2D0A16",
";  c #320D16",
":  c #320A1C",
">  c #3B0B1B",
",  c #350410",
"<  c #241116",
"1  c #23141B",
"2  c #2B131D",
"3  c #28161B",
"4  c #34111B",
"5  c #3B141D",
"6  c #1B1522",
"7  c #161A24",
"8  c #1B1A23",
"9  c #1D1C2B",
"0  c #181425",
"q  c #1A1B30",
"w  c #2D0A20",
"e  c #330E24",
"r  c #3E0F20",
"t  c #221422",
"y  c #2B1323",
"u  c #251A22",
"i  c #2A1B25",
"p  c #231C2C",
"a  c #2C1C29",
"s  c #28122B",
"d  c #341421",
"f  c #3B1121",
"g  c #36182A",
"h  c #361C26",
"j  c #201632",
"k  c #1E232B",
"l  c #1C2231",
"z  c #24232B",
"x  c #2F252E",
"c  c #2C2A2F",
"v  c #34242D",
"b  c #3A292F",
"n  c #242232",
"m  c #2B2532",
"M  c #272832",
"N  c #2C2B35",
"B  c #2F2B38",
"V  c #3E2634",
"C  c #342C34",
"Z  c #3A2B36",
"A  c #342D3A",
"S  c #3C2D3A",
"D  c #312630",
"F  c #3D303E",
"G  c #4E0A0F",
"H  c #430513",
"J  c #4B0417",
"K  c #480A1C",
"L  c #480819",
"P  c #57101B",
"I  c #530618",
"U  c #64000E",
"Y  c #67051D",
"T  c #471728",
"R  c #521E2A",
"E  c #661828",
"W  c #661A31",
"Q  c #7A1A32",
"!  c #49222C",
"~  c #42282F",
"^  c #432A35",
"/  c #4C2C36",
"(  c #432D3A",
")  c #4B2C3B",
"_  c #4B2434",
"`  c #542E3C",
"'  c #592938",
"]  c #4B343E",
"[  c #49343A",
"{  c #55313C",
"}  c #6C253A",
"|  c #67293A",
" . c #7C243C",
".. c #7B2B3D",
"X. c #772F3E",
"o. c #66353E",
"O. c #79313E",
"+. c #373942",
"@. c #552E40",
"#. c #5C2E41",
"$. c #4C3644",
"%. c #4F3B40",
"&. c #583546",
"*. c #682F44",
"=. c #732B44",
"-. c #7B2B44",
";. c #782E49",
":. c #653444",
">. c #6B3445",
",. c #64364A",
"<. c #6B354A",
"1. c #6B3A42",
"2. c #743244",
"3. c #7F3E58",
"4. c #4D5158",
"5. c #56535D",
"6. c #704253",
"7. c #871B33",
"8. c #811231",
"9. c #9C1E36",
"0. c #991936",
"q. c #9B152B",
"w. c #AB182A",
"e. c #BD1E3D",
"r. c #85242E",
"t. c #84233C",
"y. c #86293D",
"u. c #8B263B",
"i. c #932235",
"p. c #9B213D",
"a. c #B8283D",
"s. c #CC1C3E",
"d. c #D31C3C",
"f. c #D91C3E",
"g. c #D21936",
"h. c #C4233D",
"j. c #CC263E",
"k. c #D02136",
"l. c #BD1F44",
"z. c #842642",
"x. c #812D44",
"c. c #8C2542",
"v. c #962F4D",
"b. c #9C2948",
"n. c #8C354D",
"m. c #86394E",
"M. c #94354C",
"N. c #9C334C",
"B. c #9C2B52",
"V. c #8D3256",
"C. c #8D3851",
"Z. c #943652",
"A. c #9B3455",
"S. c #993755",
"D. c #A32B46",
"F. c #AD2B47",
"G. c #A42D4A",
"H. c #AC2B4B",
"J. c #BC2543",
"K. c #B32C42",
"L. c #BA2B42",
"P. c #B22B4B",
"I. c #B7284A",
"U. c #A43047",
"Y. c #B6304F",
"T. c #A72E51",
"R. c #AF3355",
"E. c #C71E43",
"W. c #CC1F42",
"Q. c #D21F43",
"!. c #C42445",
"~. c #F7395E",
"^. c #E63E62",
"/. c #BF5373",
"(. c #AF647F",
"). c #D8475C",
"_. c #CD4F69",
"`. c #DD4767",
"'. c #D54D6B",
"]. c #D64B73",
"[. c #D94776",
"{. c #C35475",
"}. c #E84366",
"|. c #7E7D83",
" X c #8D7E85",
".X c #7D8286",
"XX c #828387",
"oX c #AC9EA9",
"OX c #9EA4A6",
"+X c #D2CED6",
"@X c #D1CED9",
"#X c #D9C7D4",
"$X c #CDD3DB",
"%X c #CBD4D6",
"&X c #D4D2DB",
"*X c #D3D0D6",
"=X c #EEC4CD",
/* pixels */
"                                                                ",
"                                                                ",
"                        <.  O.2.  o.                            ",
"                      O.H.i.Y.`.i.H.O.  ,.                      ",
"                    ..i.h.~.g.f.h.!.F.c.B.<.. X . X             ",
"                  1.U.!.h.f.f.s.Q.l.B.B.V.e 7 7 8 $ X           ",
"                    u.^.J.e.l.F.}.p.G > y 0 &X4.*X@X*X|.        ",
"                    t.H.U P.B.J '.N.; # 4.$X@X@X4.&X*X+XXX      ",
"                  x.G.I Z.r * - N.H < OX*X5.%X$X$XXX.XXX        ",
"                O.N.H 1 : = : & , m.< OXoX#Xw o XX              ",
"              :.'.D.1 O 8 - (.%.=XA.; u : V.Z.,.                ",
"              =.}.b.3 7 9 d (.] - {.K 2 4 A.-.        &.    ,.  ",
"              >.F.7., $ $ 6 : < ; ].M.J V.v.>.      -.Z.x.-.=.,.",
"        @       O.Q A.> = 6 1 8 ; R.Y G.M...      -.G.Y Q 8.z.  ",
"      u   8 6     } T.Z.' g p 7 6 L A.x.2.      2.T.u.P 7.0.P.t.",
"    t   6 m 7 0     -.n.d a z l 7 a i y         -.].G H G.q.E.p.",
"      9 m v v m       S x   p z z p p p z       x._.T e c.g.g.W.",
"    p   m D D N D   z A Z   Z F A n n a z       y.F.K :  .!.g.~.",
"      t x x N N Z a Z Z ( $.[ S S A N B k z   >.K.!.R = -.).w.}.",
"      :._ v C A Z S A Z ^ ^ ( Z +.k M n M z     9.a.G - 2.L.w.!.",
"      ;.x.  d V C C z   S ( S A 0 +.  c z l p ,.Y.h.r.; > P.J.9.",
"      =.B.W ;.f 3 z     S ^ ( S +.  ! v 9 9 9   y.!.L.' w  .R.z.",
"        y.9.c.2.        S ) ( ( p ^ ..h p j p u   q.a.: 6   :.  ",
"        ..I.p.2.      Z ^ ) ) ( +.r n.R s s q u -.L.K.| y       ",
"        z.[.c.      $.y / ' ' ] i { E {.  1 A = _.J.y.4 y       ",
"        =.A.=.      Z &.b { / ^ @.^ > C.  c * e 9.`.c.2 +       ",
"          <.      p a Z / { ' @.[ u { 4     d   K.P.L 1 8       ",
"                  $.&.y ! ! / ) _ $.b ^ >.=.    N. .; @         ",
"                  A S ) [ / y [ #.T $.^ A.{.{.M.K { &           ",
"                    6 V V   1 ( ' ` t i ) 5 } 5 3 #             ",
"                    t g 6.    & 3.a 0 6 t + 3 < 3               ",
"                8   0 i             p   9                       "
};
