/* XPM */
static char *out[] = {
/* columns rows colors chars-per-pixel */
"32 32 90 1 ",
"  c None",
". c #17161B",
"X c #17171D",
"o c #251E1F",
"O c #2E291F",
"+ c #39271C",
"@ c #37311F",
"# c #3C321C",
"$ c #201E21",
"% c #2F2820",
"& c #322922",
"* c #382F23",
"= c #3D2C22",
"- c #373020",
"; c #363021",
": c #4F3A1E",
"> c #4E3D25",
", c #4C3C28",
"< c #4B432E",
"1 c #55422D",
"2 c #624726",
"3 c #67492D",
"4 c #645A27",
"5 c #655728",
"6 c #69522C",
"7 c #77532D",
"8 c #70592C",
"9 c #605532",
"0 c #625737",
"q c #625B31",
"w c #6B5539",
"e c #716629",
"r c #6C6330",
"t c #7D7440",
"y c #80582E",
"u c #916932",
"i c #956F39",
"p c #976E38",
"a c #847830",
"s c #897C31",
"d c #9C7936",
"f c #8F8032",
"g c #968838",
"h c #B88931",
"j c #BD8933",
"k c #BF843D",
"l c #B7A33A",
"z c #BAA43B",
"x c #BFA73C",
"c c #D58F3A",
"v c #D58F3B",
"b c #D0913E",
"n c #ED9733",
"m c #E0983E",
"M c #C7AF3A",
"N c #CCB73B",
"B c #CCB73D",
"V c #D5BC3C",
"C c #EDA132",
"Z c #E0CA3D",
"A c #E7CC3D",
"S c #FBC73A",
"D c #FDC63B",
"F c #FCC73B",
"G c #FAC23C",
"H c #F8C73E",
"J c #F6C93E",
"K c #F8CA3C",
"L c #F9CF3D",
"P c #F1D33A",
"I c #F0D43A",
"U c #F7D23C",
"Y c #FADA39",
"T c #FADE3A",
"R c #FEDE38",
"E c #FCDE3B",
"W c #F8D93E",
"Q c #FADB3E",
"! c #FCD93E",
"~ c #F9DC3E",
"^ c #FBDE3E",
"/ c #FCDC3C",
"( c #FDDD3D",
") c #FDDE3C",
"_ c #BEA944",
"` c #DC9843",
"' c #C4B140",
"] c #F3AF41",
"[ c #DAC54B",
"{ c #F4DB4F",
/* pixels */
"                                ",
"                                ",
"                                ",
"                                ",
"                                ",
"                                ",
"                                ",
"                                ",
"                                ",
"                                ",
"               O6               ",
"          10         :          ",
"          w[<  ;-*  '8          ",
"             yhWQVf             ",
"            +]!(R)~g            ",
"            kFM4YxeZ$           ",
"         ir vSl ^{qPX d         ",
"         ,  cDNaTBsI. >         ",
"            7GKHL/Ez            ",
"            =bJCnUAt            ",
"           @  2m`po #           ",
"          u_        5j          ",
"               %9               ",
"               &3               ",
"                                ",
"                                ",
"                                ",
"                                ",
"                                ",
"                                ",
"                                ",
"                                "
};
