/* XPM */
static char *out[] = {
/* columns rows colors chars-per-pixel */
"32 32 196 2 ",
"   c None",
".  c #0A090F",
"X  c #16050D",
"o  c #0B0A13",
"O  c #1C0E17",
"+  c #0F1F1D",
"@  c #1C141C",
"#  c #131B1D",
"$  c #1C191E",
"%  c #171216",
"&  c #35060F",
"*  c #250C17",
"=  c #2E0A16",
"-  c #2E0D1D",
";  c #340D1D",
":  c #3C0A1B",
">  c #3E0917",
",  c #241316",
"<  c #24141C",
"1  c #2C121F",
"2  c #23191E",
"3  c #34121A",
"4  c #37161E",
"5  c #19201F",
"6  c #1C1523",
"7  c #141C24",
"8  c #1B1B22",
"9  c #1D162A",
"0  c #1C1B2A",
"q  c #131A25",
"w  c #171D31",
"e  c #2B0F21",
"r  c #320F21",
"t  c #231522",
"y  c #2C1524",
"u  c #241A24",
"i  c #241C29",
"p  c #291E2D",
"a  c #281727",
"s  c #311424",
"d  c #3C1321",
"f  c #351825",
"g  c #3A162B",
"h  c #321A2A",
"j  c #3E1B2B",
"k  c #1E202C",
"l  c #1E2D3A",
"z  c #24222D",
"x  c #34212D",
"c  c #39202F",
"v  c #262534",
"b  c #2E2533",
"n  c #232D39",
"m  c #342433",
"M  c #352B34",
"N  c #352738",
"B  c #352C3B",
"V  c #3C2D3B",
"C  c #3B2837",
"Z  c #35313B",
"A  c #3C313B",
"S  c #313235",
"D  c #470817",
"F  c #59051D",
"G  c #54081B",
"H  c #610009",
"J  c #420820",
"K  c #520A22",
"L  c #4A1021",
"P  c #69182D",
"I  c #79172A",
"U  c #44222E",
"Y  c #462431",
"T  c #432A37",
"R  c #422E3C",
"E  c #4A2A39",
"W  c #562435",
"Q  c #542C3B",
"!  c #5B2B3C",
"~  c #572336",
"^  c #403035",
"/  c #44313B",
"(  c #4A333B",
")  c #55373F",
"_  c #7C253E",
"`  c #702C3E",
"'  c #7E2B3D",
"]  c #69353E",
"[  c #682732",
"{  c #323440",
"}  c #493544",
"|  c #493B45",
" . c #423641",
".. c #533242",
"X. c #5E3845",
"o. c #6D2E43",
"O. c #732E42",
"+. c #7B2A42",
"@. c #7B2846",
"#. c #653444",
"$. c #6B3342",
"%. c #633549",
"&. c #693748",
"*. c #733444",
"=. c #74304A",
"-. c #7F3B50",
";. c #53565E",
":. c #59595F",
">. c #7D415A",
",. c #565162",
"<. c #9D132B",
"1. c #941C3A",
"2. c #A61927",
"3. c #B71F3A",
"4. c #A61A34",
"5. c #862334",
"6. c #81243A",
"7. c #8A253C",
"8. c #812C3E",
"9. c #8B263A",
"0. c #93213B",
"q. c #99213E",
"w. c #B92439",
"e. c #CD1C3C",
"r. c #C71939",
"t. c #D9193A",
"y. c #E4123A",
"u. c #C3233C",
"i. c #C4263D",
"p. c #D12236",
"a. c #872444",
"s. c #802A45",
"d. c #8C2A47",
"f. c #962944",
"g. c #87384F",
"h. c #93334C",
"j. c #9C334C",
"k. c #993245",
"l. c #9B2C54",
"z. c #8A3954",
"x. c #943354",
"c. c #923852",
"v. c #AC2C45",
"b. c #A42E4A",
"n. c #AB2B4D",
"m. c #A82844",
"M. c #B52644",
"N. c #BC2446",
"B. c #BE2B41",
"V. c #BC2349",
"C. c #B62C4C",
"Z. c #B62D45",
"A. c #AE304A",
"S. c #A13252",
"D. c #A52953",
"F. c #D71D41",
"G. c #C32243",
"H. c #C82447",
"J. c #F3385B",
"K. c #E83F6E",
"L. c #BB5D76",
"P. c #9B797D",
"I. c #B4687C",
"U. c #A87074",
"Y. c #DF475E",
"T. c #EA445D",
"R. c #E2485E",
"E. c #C74E6F",
"W. c #D64D65",
"Q. c #D64B6C",
"!. c #DE4869",
"~. c #C3526F",
"^. c #D8506C",
"/. c #C74E73",
"(. c #D14F73",
"). c #C85375",
"_. c #EA4263",
"`. c #937F82",
"'. c #B36580",
"]. c #858186",
"[. c #9A9DA7",
"{. c #A9A2AF",
"}. c #F6BDCE",
"|. c #D2CCCD",
" X c #DECBCF",
".X c #CFCFD7",
"XX c #CDCFD9",
"oX c #D1CCD6",
"OX c #CCD1D9",
"+X c #D5D2DD",
"@X c #D3D2D5",
"#X c #E4C5D5",
"$X c #EEC4D3",
"%X c #E4C9DB",
"&X c #FFE2ED",
"*X c #FCF7FC",
/* pixels */
"                                                                ",
"                                                                ",
"                                                                ",
"                                                                ",
"                          #.  O.`                               ",
"                    #.  7.C.1.V._.q.n._ O.                      ",
"                  #.h.q.H.K.r.F.G.H.V.7.x.%.X o o .             ",
"                    7.N.r.e.u.w.u.3.M.h.g.; y q 6 $ o ].        ",
"                    8._.w.w.M.3.T.M.> 9 e t %X,..XOX@X X`.      ",
"                    _ C.H v.S.G W.f.e q ;.oXXXXX;.@X@XP.' 8.$.  ",
"                  @.l.F z.: = d k.D e {.oX,.oXoX|.P.U.w.H._.).&.",
"                ' n.K - < ; = X & g.t [.{. Xr X I.q.H.T.J.G.a.  ",
"              %.W.m.3 # 8 * I...$XS.= < e x.z.a.B.e.p.p.2.2.Z.q.",
"              $XQ.f., # 8 * '.! ; /.D @ J l.a.1.<.H.i.i._._.e.t.",
"            @ %XS.}., O @ % y a 3 (.k.D d.l.+.I A.9.9.s.6.^._.y.",
"          8 oXt 1 #X>.; < 6 6 q - k.I b.D.@.*X] ` &X      ` 5.G.",
"        $   9 v @ : x.z.g v 0 p t : j.0.' < *X                &.",
"          8 v b b j ` ~ h OXk z 0 i L S.P 4 %                   ",
"        8   v C N m T T V +XB Z k z y K ~.[ 3 , @               ",
"          < x x N N m V  .A R V i v v j ~.v.8.> 2 $             ",
"          %.~ x C m A { V A V C Z n l h G M.M.5.Q / @           ",
"          O.+.  f C B C C / A Z 0 n n b 4 7.W.Z.G 3 $           ",
"          $.x.P +.d z 8 C R R Z { m z z r d.4.Y.L.> 2           ",
"            d.0.q.=.    T Q E A k m z 8 g D.N.i._ ! @ #         ",
"            8.V.f.=.  C A E T C S m w w a F N.5.: y / 8         ",
"            ' Q.+.  } u ( Q Q ( t N q q u G V.s.f y t           ",
"            *.h.&.  C } U W W Y ..%Xe M 3 E.).` < t             ",
"              $.  < z C Q ! ! ) / #Xx < D j.L r | %             ",
"                   .| s U U (  .Y ..  < g.` f u $               ",
"                  A R } ( T V V Q V     4 ( $ #                 ",
"                    t M M   %  .Q / i 9 8 * k                   ",
"                $   i 8       6 <   9   u                       "
};
