/* XPM */
static char *out[] = {
/* columns rows colors chars-per-pixel */
"32 32 191 2 ",
"   c None",
".  c #0A090B",
"X  c #17040E",
"o  c #0D0910",
"O  c #040E10",
"+  c #1A0B16",
"@  c #13171B",
"#  c #1D151E",
"$  c #161A1E",
"%  c #1C191E",
"&  c #250F1C",
"*  c #2C0D1E",
"=  c #280916",
"-  c #350512",
";  c #3A0C16",
":  c #390719",
">  c #330C1C",
",  c #3A0B1C",
"<  c #32061D",
"1  c #22131E",
"2  c #2B121B",
"3  c #29181A",
"4  c #22171A",
"5  c #35121F",
"6  c #3C121E",
"7  c #0C1B23",
"8  c #1B1523",
"9  c #151B26",
"0  c #1C1B22",
"q  c #151C2A",
"w  c #1C1B2A",
"e  c #390F21",
"r  c #221523",
"t  c #2C1421",
"y  c #221B24",
"u  c #2B1B24",
"i  c #221728",
"p  c #241C2C",
"a  c #2B1C2C",
"s  c #321323",
"d  c #361C2B",
"f  c #341924",
"g  c #251A31",
"h  c #2C1F30",
"j  c #361E32",
"k  c #1E222C",
"l  c #182731",
"z  c #22212F",
"x  c #2A242E",
"c  c #32232D",
"v  c #3D2B2F",
"b  c #2D2433",
"n  c #252B35",
"m  c #2B2935",
"M  c #2B2736",
"N  c #342436",
"B  c #332B35",
"V  c #392B35",
"C  c #332E39",
"Z  c #3D2D3A",
"A  c #352739",
"S  c #2A3235",
"D  c #33313B",
"F  c #3C313B",
"G  c #3A3838",
"H  c #5D0106",
"J  c #440912",
"K  c #42061A",
"L  c #440B1B",
"P  c #490316",
"I  c #510916",
"U  c #4C1C2F",
"Y  c #4D1B30",
"T  c #651E2E",
"R  c #72162B",
"E  c #721E34",
"W  c #502C2F",
"Q  c #432732",
"!  c #4F2E36",
"~  c #442C3B",
"^  c #4B2C3A",
"/  c #472936",
"(  c #522C37",
")  c #532B3B",
"_  c #5E2937",
"`  c #493039",
"'  c #4F383F",
"]  c #6C2D39",
"[  c #7C2537",
"{  c #732D3E",
"}  c #7D2A3E",
"|  c #78253B",
" . c #4C3B43",
".. c #453643",
"X. c #503640",
"o. c #593842",
"O. c #692F47",
"+. c #732E44",
"@. c #7A2D43",
"#. c #7C2D4B",
"$. c #663543",
"%. c #6B3344",
"&. c #603648",
"*. c #693749",
"=. c #643A4C",
"-. c #613B41",
";. c #7C3B53",
":. c #4B5556",
">. c #52555A",
",. c #8C1F37",
"<. c #8F1C39",
"1. c #9C1D34",
"2. c #981B38",
"3. c #941C39",
"4. c #A31938",
"5. c #B91F35",
"6. c #8F2737",
"7. c #80273A",
"8. c #812939",
"9. c #88253D",
"0. c #92243B",
"q. c #9A2035",
"w. c #BC253B",
"e. c #C91C3C",
"r. c #C31B39",
"t. c #D21C3C",
"y. c #C4253E",
"u. c #D1203D",
"i. c #B71E42",
"p. c #852A44",
"a. c #972A43",
"s. c #8D394B",
"d. c #8A354F",
"f. c #94314D",
"g. c #9A324F",
"h. c #92384E",
"j. c #9F2E51",
"k. c #8E3452",
"l. c #863B52",
"z. c #923353",
"x. c #973950",
"c. c #983856",
"v. c #9A3351",
"b. c #AC2545",
"n. c #A52D4B",
"m. c #AD2C4C",
"M. c #AC2646",
"N. c #BF2947",
"B. c #B72948",
"V. c #A4334E",
"C. c #A63454",
"Z. c #C41F44",
"A. c #C32644",
"S. c #C82046",
"D. c #C02A49",
"F. c #F43D5E",
"G. c #F33C61",
"H. c #BC5A76",
"J. c #B25D74",
"K. c #817D7F",
"L. c #9A767E",
"P. c #CD4C69",
"I. c #DB4A6B",
"U. c #C9546A",
"Y. c #D2536D",
"T. c #E14563",
"R. c #EE4161",
"E. c #F14263",
"W. c #9F7783",
"Q. c #B76383",
"!. c #7B8384",
"~. c #828285",
"^. c #A69EA8",
"/. c #A29DA7",
"(. c #A0A4AA",
"). c #D3CCCE",
"_. c #DDCAC9",
"`. c #CFCDD9",
"'. c #D5CDD4",
"]. c #DFC8D3",
"[. c #D7CED9",
"{. c #DBCDDD",
"}. c #C6D4D4",
"|. c #CAD3D5",
" X c #CCD4DF",
".X c #D5D2D8",
"XX c #EDC3CA",
"oX c #E1CAD2",
"OX c #CFCBE0",
"+X c #FFE9F1",
"@X c #FFF4FB",
/* pixels */
"                                                                ",
"                                                                ",
"                                                                ",
"                                                                ",
"                                                                ",
"                          %.  %.{   %.                          ",
"                    %.  0.V.6.w.Y.0.V.@.%.                      ",
"                  -.s.q.A.F.w.u.e.Z.b.0.v.&.+ o . .             ",
"                    } S.e.t.t.r.t.i.j.j.k.i w i 8 0 O !.        ",
"                    8.T.y.w.B.M.E.M.K < < 8 OX:.'.'.).  ~.      ",
"                    <.N.H a.j.P I.g.> % >.{.`.}.:.).oXK.        ",
"                  @.C.J s.L : , x.J 1 (.}.>.'.|.).L.W.          ",
"                [ C.K # 2 > = = - l.* /.^.].* X W.J.H.$.        ",
"              %.I.m.5 7 9 < Q.' XXv., t t d.k.=.$.{ +.          ",
"              %.Y.a.= 8 9 * Q.X.> U.: * , n.9.>                 ",
"          %   *.XX| - # @ r & # ; P.h.K k.b.p.U #               ",
"        $   1 1 _.| f., # 8 i 0 2 h.R m.m.2.B.I u $             ",
"      #   0 d # & +.c.;.d a p p 1 , z.} 8.B.A.D.P t 8           ",
"        8 a A N c   %./ u [.p x p a f @X+X1.E.e.P.] #           ",
"      %   A M C x V   Z F [.B Z g q k x %.m.G.F.D.J #           ",
"        & j M b N F y ~ ~ ~ Z V z l z x   [ N.t.1.W G 1         ",
"        =.Y N V B b C Z Z ~ Z V D n n k 0   q.y.[ 3 0 8         ",
"        +.p.  6 V B D w C Z Z Z k n b n f 9.T.y.T u 0 #         ",
"        @.g.T { d u a   Z ..~ Z D A j p 5 m.E.w.L ..8           ",
"          @.0.0.*.      ~ ^ ~ Z 0 b g l e 3.A.U.s 1 %           ",
"          ] V.4.+.    B ~ ) ` V x i g q e m.6.] u 4             ",
"            6.I.#.   .u ) ) ^ F D 8 8 0 5 H.L 3 ..0             ",
"            +.n.%.  V  .Q ( ( v   8 N u o.6 t 9 @               ",
"              %.  y % B ^ ( !   b i r u 2  .r w                 ",
"                  S S y v V ` ~   8 ..C % ' #                   ",
"                    0 B B 1 F F ).[.8 w 0 &                     ",
"                0   0 #     8 $ C |.q OXi                       "
};
