/* XPM */
static char *out[] = {
/* columns rows colors chars-per-pixel */
"32 32 77 1 ",
"  c #1E151F",
". c #150F24",
"X c #161225",
"o c #1A1526",
"O c #1E1827",
"+ c #161328",
"@ c #1B1629",
"# c #1E192B",
"$ c #1E1A30",
"% c #241A25",
"& c #2B1D26",
"* c #231C2C",
"= c #2A1E2B",
"- c #231D32",
"; c #291F33",
": c #251E38",
"> c #281E38",
", c #26202E",
"< c #2C212C",
"1 c #332026",
"2 c #33232C",
"3 c #3A252D",
"4 c #262133",
"5 c #2B2334",
"6 c #2E2835",
"7 c #272139",
"8 c #2C253B",
"9 c #2F283D",
"0 c #332533",
"q c #3A2634",
"w c #362835",
"e c #392935",
"r c #32263B",
"t c #38263B",
"y c #32293D",
"u c #3A2A3D",
"i c #432C3F",
"p c #2E2641",
"a c #2F2947",
"s c #312742",
"d c #332B43",
"f c #3A2D44",
"g c #352D49",
"h c #3A2E4A",
"j c #3C3044",
"k c #36304A",
"l c #3C314D",
"z c #3A2F51",
"x c #3C3352",
"c c #3F3359",
"v c #3D395B",
"b c #422E43",
"n c #402D4A",
"m c #433045",
"M c #493245",
"N c #42334C",
"B c #49344C",
"V c #423555",
"C c #443856",
"Z c #4B3955",
"A c #42365B",
"S c #43395C",
"D c #4A3C5D",
"F c #4B3762",
"G c #463B63",
"H c #4A3E65",
"J c #4D3F6A",
"K c #4C426B",
"L c #51436A",
"P c #4F4672",
"I c #534573",
"U c #554877",
"Y c #54467A",
"T c #55497A",
"R c #5A507C",
"E c #5A4986",
"W c #64548A",
/* pixels */
":8s8>-$@##@@*#-##OoooO*%%ooooo@-",
"HVBBt0A#5l8pHUdTTKk94@o+@*8gg,oA",
"fr05<5f#xUIDSHGcxklKso*NNZZSJg#h",
"0e,&5;##Sjdwkx974r887X7v851*4#@;",
"*2e5=5*5Gd5r9r4-8yyJx.;h4*,,,<**",
"***<=8#Sf56r5,*=5<fyr.=5,5***15#",
"52==5dop010q=5<0==3&uX*210y02<*#",
"1=q0N;%oh,<e85002eqiA.;q1<bi3*,<",
"0*;*;+%&*;8h;ht50;;s$otN008@zt1=",
"**->pp@ooO%*@@##@**@#-sr*:++;f5:",
"xSAzkvGg#;%&,SEPIcGGYG>GWWa#X@:a",
"gsrr45xI7;*&*zxKGAs5gGGUKPW7aSHV",
"dl8ga44xp#*,#99a8lG-7gAxxva@cl8k",
"gg,69d,8p@*9Kp45=r8sd:lp9go448,5",
"59d8ga98:o%pv85445rdz:ppx7:#,,4a",
",%889kvGc@lKv8*<6y00869kH#p,,<,,",
"O,,*ydscd@6xyj75458::0488#g5&,,,",
"#55,9px-#O*y62t055668t5*@:**,%*@",
",65,gks*#o*d<23=5220r>8G#8*=%=2<",
",,<ydfnDh%ON2fq3b00qf3rpg=0=%52<",
"2w80023MV@@gkd858;rdr;p-G02<=511",
"imi<0ufZ*#*ooO oooo#ooX#It&22eeu",
"d8fNDS8@ySfxCx#*;lSSIS-X:hthn5yf",
"o@#@@o@kPg0yxLO#LGNCRLg;@oo@X@@o",
":89ps5OgCr58dx+lKleulgkS*7FHZ;Vd",
"C8yvKg@l958489@yw622r55xp8ju5xJD",
"5*60y9,l,<=;l7+g555l0yx7#;05kDt0",
"*,;*88oa,<&*4pokg48848sx-@85gg:6",
"y4k44Ooa**25<8oCdk6#55ff*,-8r526",
",<<1yyOu=32127oGj,&220t-h<54,,<<",
"0<33d9ol513yl8o:5=3qeq8*d2q03332",
"huyNlpOa8***###*@o*<y=#@@0u,ft05"
};
