/* XPM */
static char *out[] = {
/* columns rows colors chars-per-pixel */
"32 32 186 2 ",
"   c #1B1B35",
".  c #1D1A35",
"X  c #1D1A37",
"o  c #1E1B36",
"O  c #1F1D35",
"+  c #1D1D37",
"@  c #1F1C37",
"#  c #1F1F37",
"$  c #201E36",
"%  c #201D38",
"&  c #211E39",
"*  c #231F38",
"=  c #221F3A",
"-  c #202038",
";  c #212139",
":  c #222038",
">  c #232139",
",  c #20203A",
"<  c #21213B",
"1  c #23203B",
"2  c #22223A",
"3  c #23233B",
"4  c #242238",
"5  c #252339",
"6  c #24223A",
"7  c #25233B",
"8  c #24253A",
"9  c #26243A",
"0  c #27253B",
"q  c #25263B",
"w  c #22223C",
"e  c #23233D",
"r  c #24243C",
"t  c #25253D",
"y  c #26243C",
"u  c #27253D",
"i  c #26273C",
"p  c #26263E",
"a  c #27273F",
"s  c #28263C",
"d  c #29273D",
"f  c #2A273C",
"g  c #28263E",
"h  c #29273F",
"j  c #26283D",
"k  c #27283D",
"l  c #27293E",
"z  c #2A283D",
"x  c #28293E",
"c  c #2A283E",
"v  c #2B293F",
"b  c #292A3E",
"n  c #282A3F",
"m  c #292A3F",
"M  c #2A2B3F",
"N  c #2C283F",
"B  c #2C2A3F",
"V  c #2E2D3F",
"C  c #2A303E",
"Z  c #3A323F",
"A  c #48343F",
"S  c #33493A",
"D  c #282840",
"F  c #292941",
"G  c #2A2840",
"H  c #2B2941",
"J  c #2A2B40",
"K  c #2A2A42",
"L  c #2B2B43",
"P  c #2C2A40",
"I  c #2D2B40",
"U  c #2D2B41",
"Y  c #2B2C40",
"T  c #2B2C41",
"R  c #2B2D42",
"E  c #2C2D41",
"W  c #2E2C41",
"Q  c #2E2F41",
"!  c #2C2D42",
"~  c #2E2C42",
"^  c #2F2D42",
"/  c #2F2D43",
"(  c #2D2E42",
")  c #2C2E43",
"_  c #2D2E43",
"`  c #2E2F43",
"'  c #2E2C44",
"]  c #2E2F44",
"[  c #312E41",
"{  c #332F40",
"}  c #302E43",
"|  c #302E44",
" . c #312F44",
".. c #312F45",
"X. c #2F3044",
"o. c #2E3045",
"O. c #2F3045",
"+. c #2F3146",
"@. c #2F3545",
"#. c #313042",
"$. c #323143",
"%. c #353140",
"&. c #353341",
"*. c #343142",
"=. c #353243",
"-. c #303145",
";. c #323045",
":. c #313244",
">. c #333244",
",. c #323345",
"<. c #303146",
"1. c #323046",
"2. c #333146",
"3. c #333147",
"4. c #313246",
"5. c #303346",
"6. c #313247",
"7. c #323347",
"8. c #343345",
"9. c #363344",
"0. c #373445",
"q. c #353446",
"w. c #343547",
"e. c #363547",
"r. c #3A3241",
"t. c #383443",
"y. c #3F3540",
"u. c #383747",
"i. c #353E43",
"p. c #3C3847",
"a. c #323348",
"s. c #343248",
"d. c #353348",
"f. c #333448",
"g. c #333449",
"h. c #333649",
"j. c #343549",
"k. c #353648",
"l. c #373648",
"z. c #363749",
"x. c #37354A",
"c. c #35364A",
"v. c #34374A",
"b. c #35364B",
"n. c #36374B",
"m. c #35384B",
"M. c #37384A",
"N. c #363C48",
"B. c #373D49",
"V. c #37384C",
"C. c #39384A",
"Z. c #38394B",
"A. c #393B4A",
"S. c #393C4B",
"D. c #3E3D4B",
"F. c #38394D",
"G. c #393A4C",
"H. c #3A3B4D",
"J. c #393A4E",
"K. c #3A3B4F",
"L. c #3B3D4C",
"P. c #3B3C4E",
"I. c #3D3C4C",
"U. c #3C3E4D",
"Y. c #3C3D4F",
"T. c #3D3F4E",
"R. c #3F3E4E",
"E. c #3B3C50",
"W. c #3C3D51",
"Q. c #3D3E50",
"!. c #443740",
"~. c #473742",
"^. c #473C43",
"/. c #413B47",
"(. c #423C46",
"). c #473D45",
"_. c #4C3F46",
"`. c #354542",
"'. c #384144",
"]. c #3A4644",
"[. c #3A4149",
"{. c #3E404D",
"}. c #3D404F",
"|. c #3E404F",
" X c #4B4149",
".X c #55444A",
/* pixels */
"L.<.( H.H.X.6.G.n.t 4.S.f.v ).0.|.J ,.P.P.J 7.Y.H.m T.O.w.T G.X.",
"D J ` m m c T D } x v J ` P &.> J k 4.a 2.8 J g D 8 J U ! t ( 0 ",
"O.J.J.] 4.J.K.J [.-.4.6.f.J.K.x c.J.J.k H.T w.T Z.] j.J.J.m I.T ",
"y U p D v s Q <.a j.d.! D _ 7.I 0 p v ..] & 7.` m j.j.T 0 t D T ",
"9 a D T k D x P r J P 6 c F J m g g -.] ] 3 W 7 D / F . x m J J ",
"H.<.f.Q.Y.X.f.P.E.! j.Y.Y.! n.W.W.x }.J F.P.K.d .Xy.M.J z.Y.Y.m ",
"l _ ] p M _ -.R J ! _ k Y ! 4.m T 3 U ! -.i 4.T I f T X.*.m p t ",
"T g.a.D ] f.7.2 ! f.7.p X.7.a.- 5.m 4.f.7.r j.] J J _ a.7.2 ! T ",
"` I ] V.j.p w.j.<.K O.Z.Z.J u.` g.n.8.- b.V.j.w {.4.].B +.G.Z.m ",
"_ J d -.J U J a N { m L J U 7.p x J ] k T k ~ q g 1 m J _ D _ k ",
"H.] j.j.O.K.J.O.^.D.6.] f.J.K.k V.C n.J.K.i R.-._ <.j.J.K.x M.7.",
"j <.<.p ! h v 2.C.! g = U 3._ $ ] X.' 1 j.u U 1.O.2 ,.P v ..} > ",
"J ] T r y r ` O.T 3 m x m m 7.v ~ _ O.u  .> X.4._ 7 d u x J _ 5 ",
"f.j.7.Y.W.] F.O.j.a.j.E.E.T  XA Y.x G.Y.W.b /.C.Z.] n.P.E.m T.-.",
"n T J t ` J [ m k O.` x J J =.* ! ! 7.m a r J - J ( X.x ! ! 4.k ",
"K f.c.m j.x ` J _ j.f.p O.j.j.r <.6.6.# _ m.V.a -.f.a.p <.f.7.- ",
"M.7.! F.M._ j.7.X._ ` Z.M.m -.F.M.x -.V.c.r ] j.6.3 :.V.j.2 H.` ",
"P ! F a c 3 t ! } a 4.T _ m ! g ! t 4.g -.v I T _ _ k.-._ k ! : ",
"O.K.M._ j.<.6.J.K.k H.T j.K.E.x c.J.F.d T.f.O.a.4.B.F.k j.J.K.x ",
"P ! F 7.;.3 ~.t.~ ( x f.x.x T s.a.y ! <.@.r m d.| y F ~ v : e.T ",
"D ] m ! _ P r.r.t p ~  .T u m F ! u _ U i.7 K <._ 3 p D } s / r ",
"<.E.E.] A.f.a.E.E.m _. .h.E.E.x G.E.E.F Q.] g.E.E.! f.<.z.u.J.T ",
"! F D ! U p ( ! >.J 4.] T 3 ! ! -.3 ^ T k ] -.T D ! -.F 3 c ^ p ",
"J r a O.O.3 x r T a m <.<.; T ] O.; -.] a -._ # D _ _ r D ! T : ",
"<.Q.Y.o.a.Q.Y._ j.D |.] c.Q.K.p U.4.] M Y.O.a.P.P._ j.K.K.s U.7.",
"! L J _ ` M 9.J x p J J O.F X.k T x T ; S i *.` ! ! X.x ` _ 4.k ",
"c.! O.M.n.K 7.) ] ] <.m.v.x G.p ] V.F.p N.J ,.] +.n.c.x a.v.c.4 ",
"T M.c.p _ V.c.a ( Z.Z.T ] n.j.r O.D !.Z d.J ] j.<.< -.V.c.t G.( ",
"U ! J U ` J $.G 0 m m g O.! T r  .d [ E Y 3 p.l.T v -.J #.k J i ",
"k.X.6.J.J._ j.O.O.a.4.J.J.! c.` M.`.j.J.J.x (.%.a.G.K.J j._ a.Z.",
"g 1._ 7 V F H ~ s O '.a W 1.| : B / L @ 4.<.<.$ =.d q.m ~ p j.; ",
"e K F , J 6 e K K   a + x F D o p K L X t p D o K % J @ t % z $ "
};
