/* XPM */
static char *out[] = {
/* columns rows colors chars-per-pixel */
"36 36 158 2 ",
"   c None",
".  c #080A07",
"X  c #09060D",
"o  c #07090A",
"O  c #080A0C",
"+  c #0C0D13",
"@  c #0B0F18",
"#  c #0E1015",
"$  c #0E131A",
"%  c #101116",
"&  c #121319",
"*  c #161A1F",
"=  c #181B1B",
"-  c #151D22",
";  c #191F25",
":  c #162026",
">  c #182025",
",  c #1C232A",
"<  c #1A282B",
"1  c #1E2730",
"2  c #1E2932",
"3  c #202A2E",
"4  c #34242D",
"5  c #222732",
"6  c #202932",
"7  c #342C33",
"8  c #392E36",
"9  c #2C3036",
"0  c #363237",
"q  c #3C3137",
"w  c #3C343B",
"e  c #3F3A3E",
"r  c #403636",
"t  c #42353D",
"y  c #403A3F",
"u  c #273541",
"i  c #3E3743",
"p  c #333B43",
"a  c #3D3843",
"s  c #493440",
"d  c #413A40",
"f  c #3F474D",
"g  c #374154",
"h  c #3E4656",
"j  c #3F4C56",
"k  c #4C474A",
"l  c #4E484B",
"z  c #4B525A",
"x  c #4D4E67",
"c  c #4C4F6A",
"v  c #465261",
"b  c #4F5467",
"n  c #4C596B",
"m  c #43526B",
"M  c #515D62",
"N  c #53526D",
"B  c #4E5E73",
"V  c #535978",
"C  c #595E7B",
"Z  c #615A68",
"A  c #765E62",
"S  c #785961",
"D  c #49617B",
"F  c #55607D",
"G  c #5B6979",
"H  c #526A7D",
"J  c #61626D",
"K  c #616A70",
"L  c #676479",
"P  c #67697A",
"I  c #686B78",
"U  c #626574",
"Y  c #71707B",
"T  c #9B3A35",
"R  c #9A4C3A",
"E  c #9F523E",
"W  c #B44523",
"Q  c #B1492C",
"!  c #BF4C29",
"~  c #BC4C22",
"^  c #BA552D",
"/  c #AC4D30",
"(  c #AA4D3D",
")  c #BC4634",
"_  c #B14936",
"`  c #BB4B32",
"'  c #B24839",
"]  c #B75434",
"[  c #B45B3B",
"{  c #BC613D",
"}  c #C04922",
"|  c #C24C2C",
" . c #CD4D2D",
".. c #CE542C",
"X. c #C34D31",
"o. c #C45334",
"O. c #CA5333",
"+. c #CB5A35",
"@. c #C65B3C",
"#. c #CE663C",
"$. c #C4653B",
"%. c #D86334",
"&. c #D2653A",
"*. c #D4693E",
"=. c #DC6C3B",
"-. c #874A45",
";. c #9F4447",
":. c #9F4945",
">. c #9C4D49",
",. c #884E59",
"<. c #8D5754",
"1. c #B14B43",
"2. c #BE6240",
"3. c #955F61",
"4. c #836E73",
"5. c #C7674E",
"6. c #C2684F",
"7. c #DB6540",
"8. c #D36C42",
"9. c #5F6B88",
"0. c #646A84",
"q. c #6D6C83",
"w. c #6E6B89",
"e. c #656988",
"r. c #716E81",
"t. c #726F8D",
"y. c #62718B",
"u. c #6B708B",
"i. c #737481",
"p. c #757F84",
"a. c #75728D",
"s. c #737C8B",
"d. c #647192",
"f. c #777190",
"g. c #707892",
"h. c #757CA5",
"j. c #8B7E8B",
"k. c #758590",
"l. c #7C8791",
"z. c #7F8E99",
"x. c #7584A3",
"c. c #808D97",
"v. c #818F9C",
"b. c #85929E",
"n. c #8496A3",
"m. c #8998A4",
"M. c #8C9DAB",
"N. c #86A1A9",
"B. c #94A1AD",
"V. c #8EA1B0",
"C. c #96AAB8",
"Z. c #9FAFBA",
"A. c #96A4B2",
"S. c #9DB1BC",
"D. c #A1B3BE",
"F. c #A1B5C0",
"G. c #A7B9C4",
"H. c #AABBC5",
/* pixels */
"                                                                        ",
"                                                                        ",
"                                                                        ",
"                                                                        ",
"                                                                        ",
"                                                                        ",
"                            B.D.G.D.H.H.H.                              ",
"                s.        B.M.n.S.F.D.F.C.V.B.        G                 ",
"                i.T     N.n.n.l.p z K p.z.n.M.m.    T 9.                ",
"                a.:.S D.A.k.p O . X . . + k c.m.S.A ;.y.                ",
"                a._ ,.M.b., O O o o X o o O * v.M.<.) h.                ",
"                a.) >.b.M + + + + O O + + + + 9 s.>.| y.                ",
"                a.` ' i.% + + + + + + + + + + % I 1.` C                 ",
"                f.! ) t # # # # # + # & # # # @ i X.@.C                 ",
"                f.o.` 0 # % % # % % % % # % & $ 8  .o.0.                ",
"                w.@.X.w & % & & % & & & & % & & 8 ..o.g.                ",
"                w.X.X.7 & # & & & & & & % + + & q ..| 0.                ",
"                q.W O.7 X + + + % + # + + + O + 4 } W c                 ",
"                q.Q @.7 O & + @ @ % + + & @ + $ 4 ~ ` c                 ",
"                L R E w + # # $ # $ $ & * $ # # w / ( c                 ",
"                d.N v u * - - - - - - - - - - * a l.u.D                 ",
"                y.4.-.0 - - - - - - - - - - - - i 3.c.V                 ",
"                Y 5.&.r ; - ; - - - ; - - ; - ; s @.6.z                 ",
"                q.2.$.w - , ; - ; ; ; > ; - > ; i o.@.n                 ",
"                q.#.%.t , , , , , , , , , , , 5 d %.7.n                 ",
"                P 8.=.i < , , , , , , , , , , , t =.8.n                 ",
"                U #.*.a < 1 1 1 1 1 2 < , 1 2 < d =.#.0.                ",
"                J { ] a 2 2 2 5 2 5 5 2 5 5 5 3 s ^ { 0.                ",
"                Z +.[ w 3 5 5 5 5 5 5 5 5 5 5 2 t [ +.b                 ",
"                B l h                             j l m                 ",
"                                                                        ",
"                                                                        ",
"                                                                        ",
"                                                                        ",
"                                                                        ",
"                                                                        "
};
