/* XPM */
static char *out[] = {
/* columns rows colors chars-per-pixel */
"32 32 208 2 ",
"   c None",
".  c #151716",
"X  c #181817",
"o  c #181917",
"O  c #1A1A17",
"+  c #171A19",
"@  c #16191A",
"#  c #181919",
"$  c #191919",
"%  c #181A18",
"&  c #191B19",
"*  c #1A1A19",
"=  c #18191A",
"-  c #1B1B1A",
";  c #1D1A18",
":  c #1D1C1A",
">  c #1C1C1B",
",  c #1D1C1B",
"<  c #1D1D1B",
"1  c #181B1D",
"2  c #181C1D",
"3  c #1B1C1C",
"4  c gray11",
"5  c #1D1C1C",
"6  c #1C1D1C",
"7  c #1D1D1C",
"8  c #1C1D1D",
"9  c #1E1E1D",
"0  c #1F1F1E",
"q  c gray12",
"w  c #271E1C",
"e  c #21201F",
"r  c #30291F",
"t  c #1B1F20",
"y  c #1D1E20",
"u  c #1E1E20",
"i  c #1D1E22",
"p  c #202020",
"a  c #212120",
"s  c gray13",
"d  c #222221",
"f  c #222222",
"g  c #232322",
"h  c #232323",
"j  c #252320",
"k  c #242221",
"l  c #242321",
"z  c #242322",
"x  c #262322",
"c  c #252422",
"v  c #272623",
"b  c #202527",
"n  c gray14",
"m  c #242524",
"M  c #252524",
"N  c #252525",
"B  c #262624",
"V  c #272625",
"C  c gray15",
"Z  c #272727",
"A  c #292523",
"S  c #282623",
"D  c #282724",
"F  c #282725",
"G  c #282827",
"H  c #292827",
"J  c #292927",
"K  c #2C2926",
"L  c #2D2A26",
"P  c #2D2A27",
"I  c #2F2B27",
"U  c #282728",
"Y  c #282828",
"T  c #292928",
"R  c gray16",
"E  c #2B2A29",
"W  c #2A2A2A",
"Q  c #2B2A2A",
"!  c #2B2B2A",
"~  c gray17",
"^  c #2F2C29",
"/  c #2D2C2B",
"(  c #2C2C2C",
")  c #2D2D2C",
"_  c #2D2D2D",
"`  c #2F2F2F",
"'  c #372D21",
"]  c #302F2F",
"[  c #3F3024",
"{  c #30302F",
"}  c #31302F",
"|  c #34312E",
" . c #34312F",
".. c #323232",
"X. c #333232",
"o. c #323233",
"O. c gray20",
"+. c #373636",
"@. c #373637",
"#. c #373737",
"$. c #3B3834",
"%. c #3B3835",
"&. c #393837",
"*. c gray22",
"=. c #393838",
"-. c #393939",
";. c #3A3A3A",
":. c #3C3B39",
">. c #3F3D38",
",. c #3F3D3B",
"<. c #3F3D3E",
"1. c #3F3E3E",
"2. c #40372D",
"3. c #403832",
"4. c #453D37",
"5. c #423E3A",
"6. c #443F3B",
"7. c #5A4123",
"8. c #48433D",
"9. c #4B463F",
"0. c #654A28",
"q. c #725028",
"w. c #454442",
"e. c gray28",
"r. c #4C4C4C",
"t. c #514B45",
"y. c #564E48",
"u. c #504F4D",
"i. c #54504B",
"p. c #58544E",
"a. c #5C564F",
"s. c #565554",
"d. c #5B5A58",
"f. c #5D5C5B",
"g. c #645C53",
"h. c #655C55",
"j. c #655D56",
"k. c #696159",
"l. c #6A6158",
"z. c #646362",
"x. c #6A6867",
"c. c #6D6B6A",
"v. c #6F6D6D",
"b. c #6F6E6C",
"n. c #776E66",
"m. c #7C7268",
"M. c gray44",
"N. c #777674",
"B. c #7A7977",
"V. c #835925",
"C. c #9F6A25",
"Z. c #A26927",
"A. c #8A7865",
"S. c #83776D",
"D. c #877A6B",
"F. c #84796F",
"G. c #847A6F",
"H. c #847D72",
"J. c #877C72",
"K. c #8A7E71",
"L. c #8C8175",
"P. c #998B7D",
"I. c #988C7E",
"U. c #9B8D7E",
"Y. c #8C8887",
"T. c #9A8D81",
"R. c #9F9286",
"E. c #949391",
"W. c #A19382",
"Q. c #A19387",
"!. c #A69788",
"~. c #A6988C",
"^. c #AA9A88",
"/. c #AE9D8B",
"(. c #B2A395",
"). c #B3A494",
"_. c #B5A494",
"`. c #B8A897",
"'. c #B9AA9C",
"]. c #BDBBBC",
"[. c #C0AE9D",
"{. c #C2B19F",
"}. c #C3B3A1",
"|. c #C7B5A3",
" X c #C7B5A4",
".X c #CCBBA7",
"XX c #CDBBA8",
"oX c #CCBBA9",
"OX c #CDBBA9",
"+X c #D9C6B1",
"@X c #D9C6B2",
"#X c #DDC9B4",
"$X c #DFCBB8",
"%X c #E0CCB8",
"&X c #E3CEB9",
"*X c #E3CFBA",
"=X c #E4CFBB",
"-X c #EBD5BF",
";X c #EAD6C0",
":X c #ECD7C0",
">X c #EDD7C1",
",X c #EAD8C3",
"<X c #EFDAC3",
"1X c #F2DDC6",
"2X c #F3DDC6",
"3X c #F3DEC7",
"4X c #F4DEC7",
"5X c #F5DEC7",
/* pixels */
"                                                                ",
"                                                                ",
"                                                                ",
"                                                                ",
"                              b y 3 t                           ",
"                        i ;.f.<.~ *.*.{ a 1                     ",
"                      9 B.v.@.O.*.Z W *.;.X.2                   ",
"                    % u.Y.c.M.1.:.s.e.C s N n                   ",
"                    &.X.#.E.z.w.d.z ..-.-._ W &                 ",
"                  # U J Q =.] / } ! ! h 4 7 f f                 ",
"                  o L l.l B T c j.Q.h.n W R Z p                 ",
"                  $ @X3X_.j g.oX;X<X XD W C g Z                 ",
"                  + $XXX=X{.*X>X{.|.OXe R n W d 6               ",
"                    P H %.I.P.8.Q V ^ A Y Y 5.y.^               ",
"                    ; [ r K.9.S ' 7.2.n.m 6.a.t.v               ",
"                    i.V.0.#X!.q.Z.C.D.G.k R.m.k.                ",
"                    H.`..X4X1X/.A.^.[.~.T.(.L.|                 ",
"                    >.,X&XW.U.XX5X+XS.'.F.$.                    ",
"                      p.}.-X2X:X%X).J.6.                        ",
"                        O I 4.3.K : - *                         ",
"                        < x  .w f p n p                         ",
"                      u F ` f G ( h M a 8                       ",
"                      o.,.] f _ ~ h +.x.N.                      ",
"                        E ) N _ _ n b.].r.                      ",
"                          g 0 = , q >                           ",
"                          5 X @ - * .                           ",
"                                                                ",
"                                                                ",
"                                                                ",
"                                                                ",
"                                                                ",
"                                                                "
};
