/* XPM */
static char *out[] = {
/* columns rows colors chars-per-pixel */
"34 34 221 2 ",
"   c None",
".  c #171917",
"X  c #181817",
"o  c #1A1917",
"O  c #1B1A17",
"+  c #181718",
"@  c #16181C",
"#  c #17191C",
"$  c #161A1C",
"%  c #171E1F",
"&  c #1B1919",
"*  c #191A19",
"=  c #191B19",
"-  c #181A1A",
";  c #181B1B",
":  c gray10",
">  c #1B1B1A",
",  c #1B1B1B",
"<  c #1C1A19",
"1  c #1D1A19",
"2  c #1C1B19",
"3  c #1C1B1B",
"4  c #1E1D1B",
"5  c #1B1B1C",
"6  c #1B1C1C",
"7  c #1B1D1C",
"8  c #1B1C1D",
"9  c #1A1C1E",
"0  c #1A1D1F",
"q  c #1D1D1D",
"w  c #1E1D1C",
"e  c #1F1D1C",
"r  c #1E1E1C",
"t  c #1F1E1C",
"y  c #1F1F1D",
"u  c #1D1E1E",
"i  c gray12",
"p  c #261C1B",
"a  c #211E1C",
"s  c #201F1D",
"d  c #361918",
"f  c #1F201C",
"g  c #22211C",
"h  c #21201F",
"j  c #22201F",
"k  c #22221E",
"l  c #26251F",
"z  c #2A2219",
"x  c #2B251D",
"c  c #2D251C",
"v  c #2F271E",
"b  c #35261A",
"n  c #161F24",
"m  c #1C1F21",
"M  c #202020",
"N  c gray13",
"B  c #232220",
"V  c #222221",
"C  c #232321",
"Z  c #212122",
"A  c #222222",
"S  c #232323",
"D  c #252322",
"F  c #272520",
"G  c #242423",
"H  c #252423",
"J  c #272622",
"K  c gray14",
"L  c #252525",
"P  c #272727",
"I  c #292622",
"U  c #2E2922",
"Y  c #282826",
"T  c #282827",
"R  c #282927",
"E  c #2A2927",
"W  c #2F2925",
"Q  c #272928",
"!  c #282828",
"~  c gray16",
"^  c #2A2A28",
"/  c #2B2A29",
"(  c #2A2A2A",
")  c #2A2B2A",
"_  c #2B2B2A",
"`  c gray17",
"'  c #2C2C2B",
"]  c #2C2C2C",
"[  c #2D2D2D",
"{  c #2E2D2D",
"}  c #2F2E2C",
"|  c gray18",
" . c #2F2F2E",
".. c #2F2F2F",
"X. c #312E2D",
"o. c #322E2C",
"O. c #35302D",
"+. c #36312C",
"@. c #37322F",
"#. c gray19",
"$. c #313131",
"%. c #333231",
"&. c #323331",
"*. c gray20",
"=. c #353230",
"-. c #363533",
";. c #363434",
":. c #363534",
">. c #373634",
",. c gray21",
"<. c #373737",
"1. c #3A3431",
"2. c #3B3532",
"3. c #3A3734",
"4. c #373837",
"5. c #3D3935",
"6. c #393939",
"7. c #3A3A3A",
"8. c #3B3A3A",
"9. c gray23",
"0. c #3C3C3C",
"q. c #3E3E3D",
"w. c #453218",
"e. c #403B37",
"r. c #423E39",
"t. c #403F3C",
"y. c #4B453E",
"u. c #685131",
"i. c #404241",
"p. c #434343",
"a. c #4E4741",
"s. c #4D4B4A",
"d. c #4E4D4B",
"f. c #534B42",
"g. c #524C47",
"h. c #5A4C41",
"j. c #59534C",
"k. c #4B5153",
"l. c #525351",
"z. c #585755",
"x. c #5A5957",
"c. c #625A51",
"v. c #645A53",
"b. c #675F57",
"n. c #62605E",
"m. c #6E635A",
"M. c #6B625C",
"N. c #726B5C",
"B. c #636262",
"V. c #676664",
"C. c #756B60",
"Z. c #7A6F62",
"A. c #797166",
"S. c #787167",
"D. c #7A7066",
"F. c #71706F",
"G. c #7C7369",
"H. c #737270",
"J. c #7F7C7D",
"K. c #A36D2B",
"L. c #BE7D2A",
"P. c #BF7D2F",
"I. c #80766C",
"U. c #82776C",
"Y. c #857869",
"T. c #85786C",
"R. c #8B7E6F",
"E. c #877C71",
"W. c #877D71",
"Q. c #807F7D",
"!. c #C58228",
"~. c #8D8178",
"^. c #938675",
"/. c #938576",
"(. c #988A7E",
"). c #888785",
"_. c #898786",
"`. c #898887",
"'. c #8F8D8D",
"]. c #8F8F8E",
"[. c #92908E",
"{. c #9A948A",
"}. c #A19487",
"|. c #A79787",
" X c #A3978B",
".X c #A6998D",
"XX c #A99B8F",
"oX c #AA9D8D",
"OX c #AC9E8F",
"+X c #B2A295",
"@X c #B8A896",
"#X c #BBA997",
"$X c #BDAD9B",
"%X c #B8AA9C",
"&X c #BCAC9C",
"*X c #BDAD9E",
"=X c #BFAF9F",
"-X c #C7B5A2",
";X c #C6B5A3",
":X c #C6B6A5",
">X c #C9B8A6",
",X c #D0C2AF",
"<X c #D6C2AF",
"1X c #D5C4AE",
"2X c #E1CDB8",
"3X c #E1CEB8",
"4X c #E4D1BB",
"5X c #E5D1BB",
"6X c #E7D2BB",
"7X c #C9C7C8",
"8X c #EBD8C0",
"9X c #EBD8C3",
"0X c #F1DCC6",
"qX c #F3DEC6",
"wX c #F3DEC7",
"eX c #F5DEC7",
"rX c #F4DFC7",
"tX c #F3DFC8",
"yX c #F5DFC8",
"uX c #F5DEC9",
"iX c #F6DEC8",
/* pixels */
"                                                                    ",
"                                                                    ",
"                                                                    ",
"                                                                    ",
"                                                                    ",
"                        7 Q $.] N s.i.m                             ",
"                    $ ( *...( <.7.~ q.B.d.;                         ",
"                    ) ,.,.6.0._ ' 9.p.J._.n.*                       ",
"                  3 L | ! V ;.x.H./ `.[.z.Q.t.                      ",
"                  R _ ~ *.7.7. .B V.>.).4.{ :.o                     ",
"                % K > i N i 4 2 ` K K #.( e A O                     ",
"                9 T G ( ( h .X&X}.+.S ^ y |. X&                     ",
"                5 ( L P ( r.2XyXwX5XoXl ;XyXrX2.                    ",
"                1.S ` K ( J -XT.Y.4XrX>X<XR.=Xo.                    ",
"                b.M.=.~ S O.w Y P C Z.C.e.~ B X                     ",
"                y.v.~.D M G.c w.v W I /.x b z n                     ",
"                3.5.S.I.& (.^.!.P.K.$XiXu.L.U                       ",
"                  a.E.*X+XU.0X:Xh.1XwXuX8X3X,X                      ",
"                    k.@.OX%Xm.yXrX9Xf.N.#XyX{.                      ",
"                        j j.XX@XqX6XwXeXtXA.                        ",
"                          : < F g.D.W.c.g                           ",
"                        # A K A s d X.p t                           ",
"                        u A L K | N H ` &.1                         ",
"                        } k i S ~ | S [ -.].                        ",
"                        '.7XF.L | | N ( %.8.                        ",
"                          l.E q Z Z r f 0                           ",
"                            + i a @ : M =                           ",
"                            . 8 ,   - 6                             ",
"                                                                    ",
"                                                                    ",
"                                                                    ",
"                                                                    ",
"                                                                    ",
"                                                                    "
};
