/* XPM */
static char *out[] = {
/* columns rows colors chars-per-pixel */
"32 32 53 1 ",
"  c #1E0705",
". c #170906",
"X c #1E0906",
"o c #1F0909",
"O c #240A06",
"+ c #290B07",
"@ c #230708",
"# c #250A09",
"$ c #2C0C0A",
"% c #330E0C",
"& c #3C0E0E",
"* c #35110D",
"= c #3A110E",
"- c #3D0F10",
"; c #3D1110",
": c #410F0F",
"> c #43120E",
", c #49120F",
"< c #410F10",
"1 c #441211",
"2 c #4B1412",
"3 c #541615",
"4 c #5A1716",
"5 c #561815",
"6 c #5C1817",
"7 c #5C1718",
"8 c #5D1919",
"9 c #621A17",
"0 c #6A1B17",
"q c #661718",
"w c #68171D",
"e c #641A19",
"r c #6C1B1A",
"t c #761D17",
"y c #7A1D16",
"u c #741C1C",
"i c #7C1D1C",
"p c #76201D",
"a c #7D211E",
"s c #751D20",
"d c #7B1E20",
"f c #772024",
"g c #7D2120",
"h c #811E1D",
"j c #8A1E1F",
"k c #84211E",
"l c #8C211F",
"z c #94241D",
"x c #811F20",
"c c #852221",
"v c #8C2222",
"b c #932422",
"n c #9A2924",
/* pixels */
"3rrru2urr04iu0rr%ur0r%urrr02rr0q",
"0iiii9biii9xiiiu&hiii>kiiii6iiii",
"%&&==+:&==*=&&&&o&&&;@=*&&&+=%=%",
"hhiuhhhi>vihd3vhihh,hiic$iihicuh",
"cagpyici>vggi3vdidk2aaac$hgaicuc",
"=22,2=22>,122122*2212%22&22=2222",
"0uuuu8zuppeluuuy&iuuu1kputp8uuuu",
"rlcvc8vvck8vclcc&clkc>ccklp5cccf",
"rr95rrr0*rrre>0rrrr%rrrrXrrrre3r",
"pikpiiii1ciii3viiii,iiih$iiiikuy",
"7983w789*e58914e799<7366$9e46438",
"uvvvxenvvj0njvvl-bbxv1bvllc6jllc",
"0iiiienyiiebiiid&hiih>viiii6iiii",
"34434348&634414424616244%8534433",
"hxcphxhh1vhxh5bxxxh,hhkc#chhkvuk",
"iisriipi=ciai2cpiiy,aapaOgaipp0a",
"9dhdi6hddiwcdixd=gidi1idhii3idhu",
"0hiii8niiieliiii-kiii1cdiii7iiii",
",4334:5433<67334$4437$43333-7333",
"bbvhbblb2bbbb6bbbbb3vbbn%bbbbbsb",
"ttdiiutt1vutu3vttti,pyti+yuyukty",
"&<>:1*>>*1;11=>1$<>*1$>>*11*<:<1",
"0kkkk8nkkcebkkxh-xjkk2vkkkk5kkxx",
"4wee03uewe3uwe0q&rwee=rw0ww2qew0",
"uuursusu>dsuu3dusuu2uuuu+uusuues",
"iigiiiiu1viiu3viiid2iiic$piiixui",
"2211<,,2O212,%22,22%<221.,2222&2",
"0hlhxqbxlhrlxjxh<xlxx<vkklk5kkhi",
"0iiyh7niii9lyiii-hiiy1ciiip4iyis",
"###o###@.####@## @#@#O##.#+@####",
"iykgiayi1viyp4vaiih2iaakOkaiacui",
"uspruuuu;guuu3auuuu:uuup+puuuuru"
};
